<svg width="374" height="238" viewBox="0 0 374 238" fill="none" xmlns="http://www.w3.org/2000/svg">
<rect x="1.20776" y="1" width="371" height="236" rx="19" fill="#BB7F5F" stroke="#6B4127" stroke-width="2"/>
<mask id="path-2-inside-1_12_8259" fill="white">
<path fill-rule="evenodd" clip-rule="evenodd" d="M30.2078 10H343.208C343.208 21.0457 352.162 30 363.208 30V208C352.162 208 343.208 216.954 343.208 228H30.2078C30.2078 216.954 21.2535 208 10.2078 208V30C21.2535 30 30.2078 21.0457 30.2078 10Z"/>
</mask>
<path fill-rule="evenodd" clip-rule="evenodd" d="M30.2078 10H343.208C343.208 21.0457 352.162 30 363.208 30V208C352.162 208 343.208 216.954 343.208 228H30.2078C30.2078 216.954 21.2535 208 10.2078 208V30C21.2535 30 30.2078 21.0457 30.2078 10Z" fill="#F6F2D5"/>
<path d="M343.208 10H345.208V8H343.208V10ZM30.2078 10V8H28.2078V10H30.2078ZM363.208 30H365.208V28H363.208V30ZM363.208 208V210H365.208V208H363.208ZM343.208 228V230H345.208V228H343.208ZM30.2078 228H28.2078V230H30.2078V228ZM10.2078 208H8.20776V210H10.2078V208ZM10.2078 30V28H8.20776V30H10.2078ZM343.208 8H30.2078V12H343.208V8ZM363.208 28C353.267 28 345.208 19.9411 345.208 10H341.208C341.208 22.1503 351.058 32 363.208 32V28ZM365.208 208V30H361.208V208H365.208ZM345.208 228C345.208 218.059 353.267 210 363.208 210V206C351.058 206 341.208 215.85 341.208 228H345.208ZM30.2078 230H343.208V226H30.2078V230ZM10.2078 210C20.1489 210 28.2078 218.059 28.2078 228H32.2078C32.2078 215.85 22.358 206 10.2078 206V210ZM8.20776 30V208H12.2078V30H8.20776ZM28.2078 10C28.2078 19.9411 20.1489 28 10.2078 28V32C22.358 32 32.2078 22.1503 32.2078 10H28.2078Z" fill="#6B4127" mask="url(#path-2-inside-1_12_8259)"/>
<path fill-rule="evenodd" clip-rule="evenodd" d="M16.212 8.00968C17.1883 8.98599 17.1883 10.5689 16.212 11.5452C15.2357 12.5215 13.6528 12.5215 12.6765 11.5452C11.7002 10.5689 11.7002 8.98599 12.6765 8.00968C13.6528 7.03337 15.2357 7.03337 16.212 8.00968ZM11.5451 12.6766C12.5214 13.6529 12.5214 15.2358 11.5451 16.2121C10.5688 17.1884 8.98591 17.1884 8.0096 16.2121C7.03329 15.2358 7.03329 13.6529 8.0096 12.6766C8.98591 11.7003 10.5688 11.7003 11.5451 12.6766ZM21.9782 14.2644C24.5736 15.5742 23.7869 19.5267 21.6568 21.6569C19.5266 23.787 15.5741 24.5737 14.2643 21.9783C12.9545 19.3828 12.4556 16.7159 14.5857 14.5858C16.7158 12.4557 19.3827 12.9546 21.9782 14.2644ZM12.1108 22.7175C13.0871 21.7412 13.0871 20.1583 12.1108 19.182C11.1345 18.2056 9.55159 18.2056 8.57528 19.182C7.59897 20.1583 7.59897 21.7412 8.57528 22.7175C9.55159 23.6938 11.1345 23.6938 12.1108 22.7175ZM22.7174 12.1109C23.6937 11.1346 23.6937 9.55167 22.7174 8.57536C21.7411 7.59905 20.1582 7.59905 19.1819 8.57536C18.2056 9.55167 18.2056 11.1346 19.1819 12.1109C20.1582 13.0872 21.7411 13.0872 22.7174 12.1109Z" fill="#835238"/>
<path fill-rule="evenodd" clip-rule="evenodd" d="M364.718 16.2121C363.742 17.1884 362.159 17.1884 361.183 16.2121C360.206 15.2358 360.206 13.6529 361.183 12.6766C362.159 11.7003 363.742 11.7003 364.718 12.6766C365.695 13.6529 365.695 15.2358 364.718 16.2121ZM360.051 11.5452C359.075 12.5215 357.492 12.5215 356.516 11.5452C355.539 10.5689 355.539 8.98601 356.516 8.00969C357.492 7.03338 359.075 7.03338 360.051 8.00969C361.028 8.98601 361.028 10.5689 360.051 11.5452ZM358.464 21.9783C357.154 24.5737 353.201 23.787 351.071 21.6569C348.941 19.5267 348.154 15.5742 350.75 14.2644C353.345 12.9546 356.012 12.4557 358.142 14.5858C360.272 16.7159 359.773 19.3828 358.464 21.9783ZM350.01 12.1109C350.987 13.0872 352.57 13.0872 353.546 12.1109C354.522 11.1346 354.522 9.55168 353.546 8.57537C352.57 7.59906 350.987 7.59906 350.01 8.57537C349.034 9.55168 349.034 11.1346 350.01 12.1109ZM360.617 22.7175C361.593 23.6938 363.176 23.6938 364.153 22.7175C365.129 21.7412 365.129 20.1583 364.153 19.182C363.176 18.2057 361.593 18.2057 360.617 19.182C359.641 20.1583 359.641 21.7412 360.617 22.7175Z" fill="#835238"/>
<path fill-rule="evenodd" clip-rule="evenodd" d="M16.212 229.405C17.1883 228.428 17.1883 226.845 16.212 225.869C15.2357 224.893 13.6528 224.893 12.6765 225.869C11.7002 226.845 11.7002 228.428 12.6765 229.405C13.6528 230.381 15.2357 230.381 16.212 229.405ZM11.5451 224.738C12.5214 223.761 12.5214 222.178 11.5451 221.202C10.5688 220.226 8.98591 220.226 8.0096 221.202C7.03329 222.178 7.03329 223.761 8.0096 224.738C8.98591 225.714 10.5688 225.714 11.5451 224.738ZM21.9782 223.15C24.5736 221.84 23.7869 217.887 21.6568 215.757C19.5266 213.627 15.5741 212.84 14.2643 215.436C12.9545 218.031 12.4556 220.698 14.5857 222.828C16.7158 224.959 19.3827 224.46 21.9782 223.15ZM12.1108 214.697C13.0871 215.673 13.0871 217.256 12.1108 218.232C11.1345 219.209 9.55159 219.209 8.57528 218.232C7.59897 217.256 7.59897 215.673 8.57528 214.697C9.55159 213.72 11.1345 213.72 12.1108 214.697ZM22.7174 225.303C23.6937 226.28 23.6937 227.863 22.7174 228.839C21.7411 229.815 20.1582 229.815 19.1819 228.839C18.2056 227.863 18.2056 226.28 19.1819 225.303C20.1582 224.327 21.7411 224.327 22.7174 225.303Z" fill="#835238"/>
<path fill-rule="evenodd" clip-rule="evenodd" d="M364.718 221.06C363.742 220.084 362.159 220.084 361.183 221.06C360.206 222.036 360.206 223.619 361.183 224.595C362.159 225.572 363.742 225.572 364.718 224.595C365.695 223.619 365.695 222.036 364.718 221.06ZM360.051 225.727C359.075 224.751 357.492 224.751 356.516 225.727C355.539 226.703 355.539 228.286 356.516 229.262C357.492 230.239 359.075 230.239 360.051 229.262C361.028 228.286 361.028 226.703 360.051 225.727ZM358.464 215.294C357.154 212.698 353.201 213.485 351.071 215.615C348.941 217.745 348.154 221.698 350.75 223.008C353.345 224.317 356.012 224.816 358.142 222.686C360.272 220.556 359.773 217.889 358.464 215.294ZM350.01 225.161C350.987 224.185 352.57 224.185 353.546 225.161C354.522 226.137 354.522 227.72 353.546 228.697C352.57 229.673 350.987 229.673 350.01 228.697C349.034 227.72 349.034 226.137 350.01 225.161ZM360.617 214.555C361.593 213.578 363.176 213.578 364.153 214.555C365.129 215.531 365.129 217.114 364.153 218.09C363.176 219.066 361.593 219.066 360.617 218.09C359.641 217.114 359.641 215.531 360.617 214.555Z" fill="#835238"/>
</svg>
