<svg width="69" height="74" viewBox="0 0 69 74" fill="none" xmlns="http://www.w3.org/2000/svg">
<mask id="mask0_12_9349" style="mask-type:alpha" maskUnits="userSpaceOnUse" x="0" y="0" width="69" height="74">
<rect x="0.925903" width="67.1481" height="74" fill="#D9D9D9"/>
</mask>
<g mask="url(#mask0_12_9349)">
<ellipse cx="35.1852" cy="66.4629" rx="26.037" ry="7.53704" fill="black" fill-opacity="0.2"/>
<path d="M53.8642 46.7149C55.6491 48.8244 52.7824 51.6911 51.2679 52.3942L54.8378 58.8849C58.4077 58.2358 61.653 56.7754 64.2492 53.3678C66.8455 49.9602 67.3323 42.9828 64.087 39.0884C60.8417 35.194 55.9737 33.615 52.2415 35.194C48.0226 36.9789 46.8868 39.8997 47.3736 43.6318C47.8353 47.1717 53.2006 49.0508 52.7283 48.4998C51.7547 47.364 52.7283 45.7413 53.8642 46.7149Z" fill="white"/>
<path d="M54.8171 59.2094L53.3568 55.315C55.6285 54.8282 58.8738 54.5037 62.1191 50.6093C64.1205 48.2076 65.0399 43.2533 65.0399 40.8734C66.8248 45.2545 66.9871 49.3112 64.3909 53.2056C62.3138 56.3211 57.143 58.5063 54.8171 59.2094Z" fill="#E5DECC" style="mix-blend-mode:multiply"/>
<path d="M51.2679 52.3942C52.7824 51.6911 55.6491 48.8244 53.8642 46.7149C52.7283 45.7413 51.7547 47.364 52.7283 48.4998C53.2006 49.0508 47.8353 47.1717 47.3736 43.6318C46.8868 39.8997 48.0226 36.9789 52.2415 35.194C55.9737 33.615 60.8417 35.194 64.087 39.0884C67.3323 42.9828 66.8455 49.9602 64.2492 53.3678C61.653 56.7754 58.4077 58.2358 54.8378 58.8849" stroke="black" stroke-width="0.973597" stroke-linecap="round" stroke-linejoin="round"/>
<path d="M15.7316 52.5565C15.4719 48.013 16.8133 42.3337 17.5165 40.062L39.747 39.7374C40.0715 40.5488 40.9477 42.496 41.8564 43.7941C42.9923 45.4167 45.9131 47.6885 48.6716 49.7979C51.4301 51.9074 53.5396 54.6659 54.6755 58.8848C55.8113 63.1038 54.1887 66.5114 53.0528 68.2963C51.9169 70.0812 44.9395 71.7039 42.181 70.4057C39.9741 69.3672 40.2879 67.7013 40.7206 66.9982H36.3394C35.2035 71.3793 33.0941 71.0548 30.8223 71.0548C28.5506 71.0548 25.9543 72.1907 24.9807 69.1076C24.2019 66.6412 27.3606 65.2673 29.0374 64.8887L27.9015 59.2094L25.9543 58.5603C25.6298 61.3188 24.9807 65.7 24.4939 67.1604C24.1045 68.3287 22.2763 69.5944 21.4109 70.0812C20.4373 70.1353 17.9384 70.211 15.7316 70.0812C12.973 69.9189 13.2976 68.4585 13.2976 66.5114C13.2976 64.9536 16.1102 64.1314 17.5165 63.9151C17.0297 62.022 15.9912 57.0999 15.7316 52.5565Z" fill="white"/>
<path d="M33.8847 41.6846C35.7021 41.5548 38.4282 40.5487 39.564 40.062C40.2672 41.4683 42.4848 44.8975 45.7302 47.3639C49.7868 50.447 53.0321 54.0168 54.0057 56.4508C54.9793 58.8848 55.7907 65.2132 54.0057 67.1604C52.2208 69.1076 51.5717 70.568 48.6509 70.568H42.4848L41.1867 69.7567L40.6999 68.9453C40.9163 68.6749 41.5761 68.2963 42.4848 68.9453C43.6207 69.7567 49.9491 69.5944 51.5717 67.1604C53.1944 64.7264 53.5189 59.0471 49.3 54.6659C45.0811 50.2847 42.4848 49.1489 39.0772 46.7149C35.6696 44.2809 33.8847 41.6846 33.8847 41.6846Z" fill="#E5DECC" style="mix-blend-mode:multiply"/>
<path d="M41.0244 66.8359H36.6432C36.5351 66.9441 36.2214 67.3876 35.8319 68.2963C35.4425 69.205 33.9388 70.4058 33.2357 70.8926C31.4507 70.9466 27.6212 71.0224 26.5827 70.8926C25.5442 70.7627 25.1764 69.7567 25.1223 69.2699C25.3928 69.1076 26.0635 68.6208 26.5827 69.2699C27.2318 70.0812 32.0998 69.4322 33.2357 68.6208C35.0064 67.356 35.5381 63.7395 35.8319 60.5075C36.1564 56.9377 35.7237 52.1779 35.8319 50.7715C38.2984 52.5889 40.2672 54.6118 40.3754 55.4773C39.0772 58.5928 40.159 61.7516 41.0244 62.617C41.8033 63.6555 43.7289 64.8887 44.5943 65.3755C42.3875 65.5053 41.2949 66.4032 41.0244 66.8359Z" fill="#E5DECC" style="mix-blend-mode:multiply"/>
<path d="M21.4109 69.7567C20.4373 69.8108 17.9384 69.8865 15.7316 69.7567C15.0215 69.8649 13.5365 69.7567 13.2769 68.4586C12.9524 66.8359 13.7637 66.8359 14.2505 67.3227C14.7373 67.8095 15.2034 68.4586 18.3072 68.4586C21.4109 68.4586 22.3638 67.3227 23.0129 65.5378C23.5321 64.1098 23.4456 58.6685 23.3374 56.1263L25.9543 58.2358C25.6298 60.9943 24.9807 65.3755 24.4939 66.8359C24.1045 68.0042 22.2763 69.2699 21.4109 69.7567Z" fill="#E5DECC" style="mix-blend-mode:multiply"/>
<path d="M36.5016 66.8359C37.3671 66.9441 39.1628 66.9657 40.7206 66.8359" stroke="black" stroke-width="0.973597" stroke-linecap="round" stroke-linejoin="round"/>
<path d="M42.6678 53.5301C39.9092 54.3414 38.1243 60.3453 41.8564 63.5906C43.4791 65.0016 45.4263 65.2133 45.4263 65.2133C45.4263 65.2133 41.9213 65.1808 40.8828 66.9982C39.5847 69.2699 41.8564 70.568 42.6678 70.568C43.4791 70.568 48.9961 70.7303 50.6188 70.0812C52.2415 69.4322 54.3683 67.9401 54.8377 64.8887C55.1623 62.7793 55.9895 57.545 51.2679 52.3942C45.9131 46.5526 41.8564 45.9036 39.5847 39.8997" stroke="black" stroke-width="0.973597" stroke-linecap="round" stroke-linejoin="round"/>
<path d="M17.5165 40.2242C16.1643 43.74 14.2712 53.2704 17.5165 63.9151C15.8397 64.0774 13.1353 65.2132 13.1353 67.3227C13.1353 69.6737 14.8661 70.1353 15.5693 70.0812C15.5693 70.0812 19.4637 70.0812 20.7618 70.0812C22.0599 70.0812 23.3581 68.7831 24.0071 67.6472C24.6562 66.5114 26.1166 64.0774 25.7921 58.2358" stroke="black" stroke-width="0.973597" stroke-linecap="round" stroke-linejoin="round"/>
<path d="M27.7513 51.4206C27.6332 55.3823 27.7204 60.0366 29.1997 64.8887C27.5229 65.051 24.8185 66.1868 24.8185 68.2963C24.8185 70.6473 26.5493 71.1089 27.2525 71.0548C27.2525 71.0548 31.1469 71.0548 32.445 71.0548C33.7431 71.0548 35.0412 69.7567 35.6903 68.6208C36.3394 67.485 37.7998 62.9503 37.7998 59.2094C37.7998 56.1263 37.4752 53.0433 37.4752 53.0433" stroke="black" stroke-width="0.973597" stroke-linecap="round" stroke-linejoin="round"/>
<path d="M19.7882 49.6357C20.0812 51.9459 22.2222 56.6131 27.9015 59.2094" stroke="black" stroke-width="0.973597" stroke-linecap="round" stroke-linejoin="round"/>
<path d="M13.2976 2.74072C9.53307 12.6065 11.7291 18.5346 13.2976 20.2655L23.845 11.0163C20.2102 4.65546 15.2989 2.95708 13.2976 2.74072Z" fill="white"/>
<path d="M13.6222 20.1032C18.5551 8.42001 30.3897 9.9345 35.6904 12.3144C36.9885 10.5836 41.2399 7.21924 47.8603 6.31055C49.6453 10.3131 51.4627 19.5839 44.4528 24.6466C45.7509 27.5674 47.2395 33.2467 42.6678 37.6279C39.711 40.4615 35.821 41.5335 31.9583 42.0813L23.0336 41.8468C18.1656 40.8732 13.6222 38.7638 11.1882 32.9222C9.24099 28.2489 11.9995 22.429 13.6222 20.1032Z" fill="white"/>
<path d="M36.8056 16.2088C39.4018 11.6654 45.8925 8.6905 48.3265 7.771C48.8674 9.01504 49.8193 12.5416 49.3001 16.6956C48.7808 20.8497 45.8384 23.8354 44.4321 24.809C45.8925 27.5675 47.5152 33.0845 42.8094 37.4657C39.0449 40.9707 34.0471 41.901 32.4244 41.8469C34.5339 41.0356 37.1912 39.362 39.2396 36.9789C42.1604 33.5809 42.6008 29.8392 41.6736 25.9448C40.7463 22.0504 38.4282 18.3724 36.8056 16.2088Z" fill="#E5DECC" style="mix-blend-mode:multiply"/>
<path d="M13.2976 20.2655C11.7291 18.5346 9.53307 12.6065 13.2976 2.74072C15.2989 2.95708 20.2102 4.65546 23.845 11.0163" stroke="black" stroke-width="0.973597" stroke-linecap="round" stroke-linejoin="round"/>
<path d="M15.0826 5.98602C13.2652 10.3997 14.3253 15.5056 15.0826 17.3447C15.0826 17.3447 16.2988 15.3212 17.3543 14.2616C18.3114 13.3008 20.1128 12.1521 20.1128 12.1521C18.1656 8.64719 16.0021 6.47282 15.0826 5.98602Z" fill="#E45F70"/>
<path d="M15.0826 5.98602C16.0021 6.47282 18.1656 8.64719 20.1128 12.1521" stroke="black" stroke-width="0.973597" stroke-linecap="round" stroke-linejoin="round"/>
<path d="M46.5622 10.205C47.6774 16.5333 44.9189 20.59 42.9924 22.2127C42.9924 22.2127 41.9045 20.0763 41.2074 18.9673C40.5104 17.8584 39.4225 16.5333 39.4225 16.5333C40.8504 13.6775 45.3182 10.6918 46.5622 10.205Z" fill="#E45F70"/>
<path d="M39.4225 16.5333C40.8504 13.6775 45.3182 10.6918 46.5622 10.205" stroke="black" stroke-width="0.973597" stroke-linecap="round" stroke-linejoin="round"/>
<path d="M23.0336 41.8469C18.1656 40.8733 13.6222 38.7638 11.1882 32.9222C9.24099 28.2489 11.9995 22.429 13.6222 20.1032C18.5551 8.42001 30.3897 9.9345 35.6904 12.3144C36.9885 10.5836 41.2399 7.21924 47.8603 6.31055C49.6453 10.3131 51.4627 19.5839 44.4528 24.6466C45.7509 27.5674 47.2395 33.2467 42.6678 37.6279C39.711 40.4615 35.821 41.5335 31.9583 42.0813C30.9626 42.2225 29.6077 42.316 28.3677 42.3446" stroke="black" stroke-width="0.973597" stroke-linecap="round" stroke-linejoin="round"/>
<path d="M23.0336 24.3221C23.0336 26.6522 21.29 27.892 19.1392 28.2165C17.0125 28.5374 15.2448 26.6522 15.2448 24.3221C15.2448 21.9921 16.9884 20.1032 19.1392 20.1032C21.29 20.1032 23.0336 21.9921 23.0336 24.3221Z" fill="#FBFBFB"/>
<mask id="mask1_12_9349" style="mask-type:alpha" maskUnits="userSpaceOnUse" x="15" y="20" width="9" height="9">
<path d="M23.6827 24.3221C23.6827 26.6522 21.7938 27.892 19.4638 28.2165C17.1598 28.5374 15.2448 26.6522 15.2448 24.3221C15.2448 21.9921 17.1337 20.1032 19.4638 20.1032C21.7938 20.1032 23.6827 21.9921 23.6827 24.3221Z" fill="#FBFBFB"/>
</mask>
<g mask="url(#mask1_12_9349)">
<ellipse cx="19.9506" cy="24.4844" rx="3.08306" ry="3.40759" fill="black"/>
<ellipse cx="19.9506" cy="24.4844" rx="2.10946" ry="2.43399" fill="black"/>
<circle cx="19.3015" cy="23.1863" r="1.13586" fill="#FBFBFB"/>
<circle cx="20.4374" cy="25.9448" r="0.649065" fill="#FBFBFB"/>
</g>
<path d="M22.5468 24.3221C22.5468 21.9921 20.9122 20.1032 18.8958 20.1032C16.8794 20.1032 15.2448 21.9921 15.2448 24.3221" stroke="black" stroke-width="0.973597" stroke-linecap="round"/>
<path d="M29.1997 26.2508C29.1997 28.5707 30.9433 29.8051 33.0941 30.1282C35.2209 30.4477 36.9885 28.5707 36.9885 26.2508C36.9885 23.931 35.2449 22.0504 33.0941 22.0504C30.9433 22.0504 29.1997 23.931 29.1997 26.2508Z" fill="#FBFBFB"/>
<mask id="mask2_12_9349" style="mask-type:alpha" maskUnits="userSpaceOnUse" x="29" y="22" width="8" height="9">
<path d="M29.1997 26.2693C29.1997 28.5994 30.9433 29.8392 33.0941 30.1637C35.2209 30.4846 36.9885 28.5994 36.9885 26.2693C36.9885 23.9393 35.2449 22.0504 33.0941 22.0504C30.9433 22.0504 29.1997 23.9393 29.1997 26.2693Z" fill="#FBFBFB"/>
</mask>
<g mask="url(#mask2_12_9349)">
<ellipse cx="3.08306" cy="3.40759" rx="3.08306" ry="3.40759" transform="matrix(-1 0 0 1 35.3659 23.024)" fill="black"/>
<ellipse cx="2.10946" cy="2.43399" rx="2.10946" ry="2.43399" transform="matrix(-1 0 0 1 34.3923 23.9976)" fill="black"/>
<circle cx="1.13586" cy="1.13586" r="1.13586" transform="matrix(-1 0 0 1 34.0677 23.9976)" fill="#FBFBFB"/>
<circle cx="0.649065" cy="0.649065" r="0.649065" transform="matrix(-1 0 0 1 32.4451 27.2429)" fill="#FBFBFB"/>
</g>
<path d="M29.6865 26.2508C29.6865 23.931 31.3211 22.0504 33.3375 22.0504C35.3539 22.0504 36.9885 23.931 36.9885 26.2508" stroke="black" stroke-width="0.973597" stroke-linecap="round"/>
<path d="M33.7693 18.4275C33.9268 19.2375 33.0993 19.5496 32.0437 19.7548C30.988 19.96 30.1039 19.9806 29.9465 19.1706C29.7271 18.0421 30.4927 17.4114 31.5483 17.2062C32.6039 17.001 33.55 17.299 33.7693 18.4275Z" fill="black"/>
<path d="M19.9701 17.6006C19.7427 18.3937 20.5398 18.7767 21.5735 19.0732C22.6073 19.3696 23.4862 19.4672 23.7136 18.674C24.0305 17.5689 23.3229 16.8739 22.2891 16.5775C21.2554 16.2811 20.287 16.4954 19.9701 17.6006Z" fill="black"/>
<path d="M19.9506 31.2995C20.0587 31.7863 20.5347 32.7599 21.5732 32.7599C22.8714 32.7599 23.6827 31.9486 24.0072 30.3259C24.0072 31.1913 24.4291 32.9871 26.1167 33.2467C27.8042 33.5063 28.4425 32.3813 28.5507 31.7863" stroke="black" stroke-width="0.973597" stroke-linecap="round"/>
<path d="M26.9433 28.3131C26.912 29.2087 25.6298 30.5403 24.1072 30.4871C22.5846 30.434 21.3983 29.0161 21.4296 28.1205C21.4609 27.2249 22.7092 26.8663 24.2318 26.9195C25.7543 26.9726 26.9746 27.4174 26.9433 28.3131Z" fill="black"/>
<ellipse opacity="0.5" cx="22.8714" cy="27.892" rx="0.486799" ry="0.324532" fill="#FBFBFB"/>
</g>
</svg>
