<svg width="361" height="497" viewBox="0 0 361 497" fill="none" xmlns="http://www.w3.org/2000/svg">
<rect x="5" y="5" width="351" height="487" rx="9" fill="#BB7F5F" stroke="#6B4127" stroke-width="2"/>
<rect x="15" y="15" width="331" height="467" rx="9" fill="#F6F2D5" stroke="#6B4127" stroke-width="2"/>
<g filter="url(#filter0_i_57_83)">
<path fill-rule="evenodd" clip-rule="evenodd" d="M1 8C1 4.13401 4.13401 1 8 1H24C27.866 1 31 4.13401 31 8C31 11.6097 28.2677 14.5813 24.7584 14.9594L25.163 15.364C27.8966 18.0976 27.8966 22.5298 25.163 25.2635C22.4293 27.9971 17.9971 27.9971 15.2635 25.2635L14.9377 24.9377C14.4795 28.3603 11.548 31 8 31C4.13401 31 1 27.866 1 24V8Z" fill="#EDD274"/>
</g>
<path d="M24.7584 14.9594L24.6513 13.9651C24.2685 14.0064 23.9434 14.2637 23.8153 14.6268C23.6873 14.9899 23.779 15.3943 24.0513 15.6665L24.7584 14.9594ZM25.163 25.2635L25.8701 25.9706V25.9706L25.163 25.2635ZM15.2635 25.2635L14.5563 25.9706L14.5563 25.9706L15.2635 25.2635ZM14.9377 24.9377L15.6448 24.2306C15.3759 23.9617 14.9776 23.8686 14.6173 23.9904C14.257 24.1123 13.997 24.428 13.9466 24.805L14.9377 24.9377ZM8 0C3.58172 0 0 3.58172 0 8H2C2 4.68629 4.68629 2 8 2V0ZM24 0H8V2H24V0ZM32 8C32 3.58172 28.4183 0 24 0V2C27.3137 2 30 4.68629 30 8H32ZM24.8655 15.9536C28.8772 15.5215 32 12.1261 32 8H30C30 11.0934 27.6582 13.6412 24.6513 13.9651L24.8655 15.9536ZM24.0513 15.6665L24.4558 16.0711L25.8701 14.6569L25.4655 14.2523L24.0513 15.6665ZM24.4558 16.0711C26.799 18.4142 26.799 22.2132 24.4558 24.5564L25.8701 25.9706C28.9943 22.8464 28.9943 17.781 25.8701 14.6569L24.4558 16.0711ZM24.4558 24.5563C22.1127 26.8995 18.3137 26.8995 15.9706 24.5563L14.5563 25.9706C17.6805 29.0948 22.7459 29.0948 25.8701 25.9706L24.4558 24.5563ZM15.9706 24.5564L15.6448 24.2306L14.2306 25.6448L14.5563 25.9706L15.9706 24.5564ZM8 32C12.0557 32 15.4051 28.983 15.9289 25.0704L13.9466 24.805C13.5539 27.7377 11.0404 30 8 30V32ZM0 24C0 28.4183 3.58172 32 8 32V30C4.68629 30 2 27.3137 2 24H0ZM0 8V24H2V8H0Z" fill="#6B4127"/>
<circle cx="12" cy="12" r="5" fill="#A5863B" stroke="#6B4127" stroke-width="2"/>
<g filter="url(#filter1_i_57_83)">
<path fill-rule="evenodd" clip-rule="evenodd" d="M1 489C1 492.866 4.13401 496 8 496H24C27.866 496 31 492.866 31 489C31 485.39 28.2677 482.419 24.7584 482.041L25.163 481.636C27.8966 478.902 27.8966 474.47 25.163 471.737C22.4293 469.003 17.9971 469.003 15.2635 471.737L14.9377 472.062C14.4795 468.64 11.548 466 8 466C4.13401 466 1 469.134 1 473V489Z" fill="#EDD274"/>
</g>
<path d="M24.7584 482.041L24.6513 483.035C24.2685 482.994 23.9434 482.736 23.8153 482.373C23.6873 482.01 23.779 481.606 24.0513 481.333L24.7584 482.041ZM25.163 471.737L25.8701 471.029V471.029L25.163 471.737ZM15.2635 471.737L14.5563 471.029L14.5563 471.029L15.2635 471.737ZM14.9377 472.062L15.6448 472.769C15.3759 473.038 14.9776 473.131 14.6173 473.01C14.257 472.888 13.997 472.572 13.9466 472.195L14.9377 472.062ZM8 497C3.58172 497 0 493.418 0 489H2C2 492.314 4.68629 495 8 495V497ZM24 497H8V495H24V497ZM32 489C32 493.418 28.4183 497 24 497V495C27.3137 495 30 492.314 30 489H32ZM24.8655 481.046C28.8772 481.479 32 484.874 32 489H30C30 485.907 27.6582 483.359 24.6513 483.035L24.8655 481.046ZM24.0513 481.333L24.4558 480.929L25.8701 482.343L25.4655 482.748L24.0513 481.333ZM24.4558 480.929C26.799 478.586 26.799 474.787 24.4558 472.444L25.8701 471.029C28.9943 474.154 28.9943 479.219 25.8701 482.343L24.4558 480.929ZM24.4558 472.444C22.1127 470.101 18.3137 470.101 15.9706 472.444L14.5563 471.029C17.6805 467.905 22.7459 467.905 25.8701 471.029L24.4558 472.444ZM15.9706 472.444L15.6448 472.769L14.2306 471.355L14.5563 471.029L15.9706 472.444ZM8 465C12.0557 465 15.4051 468.017 15.9289 471.93L13.9466 472.195C13.5539 469.262 11.0404 467 8 467V465ZM0 473C0 468.582 3.58172 465 8 465V467C4.68629 467 2 469.686 2 473H0ZM0 489V473H2V489H0Z" fill="#6B4127"/>
<circle cx="5" cy="5" r="5" transform="matrix(1 0 0 -1 7 490)" fill="#A5863B" stroke="#6B4127" stroke-width="2"/>
<g filter="url(#filter2_i_57_83)">
<path fill-rule="evenodd" clip-rule="evenodd" d="M360 8C360 4.13401 356.866 1 353 1H337C333.134 1 330 4.13401 330 8C330 11.6097 332.732 14.5813 336.242 14.9594L335.837 15.364C333.103 18.0976 333.103 22.5298 335.837 25.2635C338.571 27.9971 343.003 27.9971 345.737 25.2635L346.062 24.9377C346.52 28.3603 349.452 31 353 31C356.866 31 360 27.866 360 24V8Z" fill="#EDD274"/>
</g>
<path d="M336.242 14.9594L336.349 13.9651C336.732 14.0064 337.057 14.2637 337.185 14.6268C337.313 14.9899 337.221 15.3943 336.949 15.6665L336.242 14.9594ZM335.837 25.2635L335.13 25.9706V25.9706L335.837 25.2635ZM345.737 25.2635L346.444 25.9706L346.444 25.9706L345.737 25.2635ZM346.062 24.9377L345.355 24.2306C345.624 23.9617 346.022 23.8686 346.383 23.9904C346.743 24.1123 347.003 24.428 347.053 24.805L346.062 24.9377ZM353 0C357.418 0 361 3.58172 361 8H359C359 4.68629 356.314 2 353 2V0ZM337 0H353V2H337V0ZM329 8C329 3.58172 332.582 0 337 0V2C333.686 2 331 4.68629 331 8H329ZM336.135 15.9536C332.123 15.5215 329 12.1261 329 8H331C331 11.0934 333.342 13.6412 336.349 13.9651L336.135 15.9536ZM336.949 15.6665L336.544 16.0711L335.13 14.6569L335.535 14.2523L336.949 15.6665ZM336.544 16.0711C334.201 18.4142 334.201 22.2132 336.544 24.5564L335.13 25.9706C332.006 22.8464 332.006 17.781 335.13 14.6569L336.544 16.0711ZM336.544 24.5563C338.887 26.8995 342.686 26.8995 345.029 24.5563L346.444 25.9706C343.319 29.0948 338.254 29.0948 335.13 25.9706L336.544 24.5563ZM345.029 24.5564L345.355 24.2306L346.769 25.6448L346.444 25.9706L345.029 24.5564ZM353 32C348.944 32 345.595 28.983 345.071 25.0704L347.053 24.805C347.446 27.7377 349.96 30 353 30V32ZM361 24C361 28.4183 357.418 32 353 32V30C356.314 30 359 27.3137 359 24H361ZM361 8V24H359V8H361Z" fill="#6B4127"/>
<circle cx="5" cy="5" r="5" transform="matrix(-1 0 0 1 354 7)" fill="#A5863B" stroke="#6B4127" stroke-width="2"/>
<g filter="url(#filter3_i_57_83)">
<path fill-rule="evenodd" clip-rule="evenodd" d="M360 489C360 492.866 356.866 496 353 496H337C333.134 496 330 492.866 330 489C330 485.39 332.732 482.419 336.242 482.041L335.837 481.636C333.103 478.902 333.103 474.47 335.837 471.737C338.571 469.003 343.003 469.003 345.737 471.737L346.062 472.062C346.52 468.64 349.452 466 353 466C356.866 466 360 469.134 360 473V489Z" fill="#EDD274"/>
</g>
<path d="M336.242 482.041L336.349 483.035C336.732 482.994 337.057 482.736 337.185 482.373C337.313 482.01 337.221 481.606 336.949 481.333L336.242 482.041ZM335.837 471.737L335.13 471.029V471.029L335.837 471.737ZM345.737 471.737L346.444 471.029L346.444 471.029L345.737 471.737ZM346.062 472.062L345.355 472.769C345.624 473.038 346.022 473.131 346.383 473.01C346.743 472.888 347.003 472.572 347.053 472.195L346.062 472.062ZM353 497C357.418 497 361 493.418 361 489H359C359 492.314 356.314 495 353 495V497ZM337 497H353V495H337V497ZM329 489C329 493.418 332.582 497 337 497V495C333.686 495 331 492.314 331 489H329ZM336.135 481.046C332.123 481.479 329 484.874 329 489H331C331 485.907 333.342 483.359 336.349 483.035L336.135 481.046ZM336.949 481.333L336.544 480.929L335.13 482.343L335.535 482.748L336.949 481.333ZM336.544 480.929C334.201 478.586 334.201 474.787 336.544 472.444L335.13 471.029C332.006 474.154 332.006 479.219 335.13 482.343L336.544 480.929ZM336.544 472.444C338.887 470.101 342.686 470.101 345.029 472.444L346.444 471.029C343.319 467.905 338.254 467.905 335.13 471.029L336.544 472.444ZM345.029 472.444L345.355 472.769L346.769 471.355L346.444 471.029L345.029 472.444ZM353 465C348.944 465 345.595 468.017 345.071 471.93L347.053 472.195C347.446 469.262 349.96 467 353 467V465ZM361 473C361 468.582 357.418 465 353 465V467C356.314 467 359 469.686 359 473H361ZM361 489V473H359V489H361Z" fill="#6B4127"/>
<circle cx="349" cy="485" r="5" transform="rotate(180 349 485)" fill="#A5863B" stroke="#6B4127" stroke-width="2"/>
<defs>
<filter id="filter0_i_57_83" x="0" y="0" width="32" height="32" filterUnits="userSpaceOnUse" color-interpolation-filters="sRGB">
<feFlood flood-opacity="0" result="BackgroundImageFix"/>
<feBlend mode="normal" in="SourceGraphic" in2="BackgroundImageFix" result="shape"/>
<feColorMatrix in="SourceAlpha" type="matrix" values="0 0 0 0 0 0 0 0 0 0 0 0 0 0 0 0 0 0 127 0" result="hardAlpha"/>
<feOffset dx="1" dy="4"/>
<feComposite in2="hardAlpha" operator="arithmetic" k2="-1" k3="1"/>
<feColorMatrix type="matrix" values="0 0 0 0 1 0 0 0 0 0.92124 0 0 0 0 0.647038 0 0 0 1 0"/>
<feBlend mode="normal" in2="shape" result="effect1_innerShadow_57_83"/>
</filter>
<filter id="filter1_i_57_83" x="0" y="465" width="32" height="32" filterUnits="userSpaceOnUse" color-interpolation-filters="sRGB">
<feFlood flood-opacity="0" result="BackgroundImageFix"/>
<feBlend mode="normal" in="SourceGraphic" in2="BackgroundImageFix" result="shape"/>
<feColorMatrix in="SourceAlpha" type="matrix" values="0 0 0 0 0 0 0 0 0 0 0 0 0 0 0 0 0 0 127 0" result="hardAlpha"/>
<feOffset dx="1" dy="4"/>
<feComposite in2="hardAlpha" operator="arithmetic" k2="-1" k3="1"/>
<feColorMatrix type="matrix" values="0 0 0 0 1 0 0 0 0 0.92124 0 0 0 0 0.647038 0 0 0 1 0"/>
<feBlend mode="normal" in2="shape" result="effect1_innerShadow_57_83"/>
</filter>
<filter id="filter2_i_57_83" x="329" y="0" width="32" height="32" filterUnits="userSpaceOnUse" color-interpolation-filters="sRGB">
<feFlood flood-opacity="0" result="BackgroundImageFix"/>
<feBlend mode="normal" in="SourceGraphic" in2="BackgroundImageFix" result="shape"/>
<feColorMatrix in="SourceAlpha" type="matrix" values="0 0 0 0 0 0 0 0 0 0 0 0 0 0 0 0 0 0 127 0" result="hardAlpha"/>
<feOffset dx="1" dy="4"/>
<feComposite in2="hardAlpha" operator="arithmetic" k2="-1" k3="1"/>
<feColorMatrix type="matrix" values="0 0 0 0 1 0 0 0 0 0.92124 0 0 0 0 0.647038 0 0 0 1 0"/>
<feBlend mode="normal" in2="shape" result="effect1_innerShadow_57_83"/>
</filter>
<filter id="filter3_i_57_83" x="329" y="465" width="32" height="32" filterUnits="userSpaceOnUse" color-interpolation-filters="sRGB">
<feFlood flood-opacity="0" result="BackgroundImageFix"/>
<feBlend mode="normal" in="SourceGraphic" in2="BackgroundImageFix" result="shape"/>
<feColorMatrix in="SourceAlpha" type="matrix" values="0 0 0 0 0 0 0 0 0 0 0 0 0 0 0 0 0 0 127 0" result="hardAlpha"/>
<feOffset dx="1" dy="4"/>
<feComposite in2="hardAlpha" operator="arithmetic" k2="-1" k3="1"/>
<feColorMatrix type="matrix" values="0 0 0 0 1 0 0 0 0 0.92124 0 0 0 0 0.647038 0 0 0 1 0"/>
<feBlend mode="normal" in2="shape" result="effect1_innerShadow_57_83"/>
</filter>
</defs>
</svg>
