<svg width="63" height="30" viewBox="0 0 63 30" fill="none" xmlns="http://www.w3.org/2000/svg">
<mask id="mask0_12_8446" style="mask-type:alpha" maskUnits="userSpaceOnUse" x="0" y="0" width="63" height="30">
<rect width="63" height="30" fill="#D9D9D9"/>
</mask>
<g mask="url(#mask0_12_8446)">
<ellipse cx="31.5" cy="19.7295" rx="30.5" ry="9.275" fill="#D8D3AF"/>
<mask id="path-3-inside-1_12_8446" fill="white">
<path fill-rule="evenodd" clip-rule="evenodd" d="M56.85 9.29999H2.15001L1.01124 17.1048C0.9235 17.4156 0.919922 17.7727 1.00664 18.1818C2.12396 23.4536 13.7629 27.7273 29.4985 27.7273C45.2341 27.7273 56.873 23.4536 57.9903 18.1818C58.0749 17.783 58.0736 17.4336 57.9922 17.1284L56.85 9.29999Z"/>
</mask>
<path fill-rule="evenodd" clip-rule="evenodd" d="M56.85 9.29999H2.15001L1.01124 17.1048C0.9235 17.4156 0.919922 17.7727 1.00664 18.1818C2.12396 23.4536 13.7629 27.7273 29.4985 27.7273C45.2341 27.7273 56.873 23.4536 57.9903 18.1818C58.0749 17.783 58.0736 17.4336 57.9922 17.1284L56.85 9.29999Z" fill="white"/>
<path d="M2.15001 9.29999V7.89999C1.45489 7.89999 0.865041 8.41002 0.764681 9.09786L2.15001 9.29999ZM56.85 9.29999L58.2353 9.09786C58.135 8.41002 57.5451 7.89999 56.85 7.89999V9.29999ZM1.01124 17.1048L2.35856 17.4852C2.37509 17.4267 2.38778 17.3671 2.39657 17.3069L1.01124 17.1048ZM1.00664 18.1818L2.37621 17.8916L2.37621 17.8916L1.00664 18.1818ZM57.9903 18.1818L56.6208 17.8916L56.6208 17.8916L57.9903 18.1818ZM57.9922 17.1284L56.6069 17.3305C56.6147 17.384 56.6256 17.4369 56.6395 17.4891L57.9922 17.1284ZM2.15001 10.7H56.85V7.89999H2.15001V10.7ZM2.39657 17.3069L3.53534 9.50212L0.764681 9.09786L-0.374096 16.9027L2.39657 17.3069ZM2.37621 17.8916C2.32501 17.6499 2.34605 17.5295 2.35856 17.4852L-0.33609 16.7244C-0.499053 17.3016 -0.485164 17.8954 -0.36294 18.4721L2.37621 17.8916ZM29.4985 26.3273C21.7427 26.3273 15.0604 25.2723 10.2265 23.6078C7.80699 22.7746 5.9043 21.807 4.5672 20.785C3.21877 19.7544 2.56022 18.7597 2.37621 17.8916L-0.36294 18.4721C0.011715 20.2398 1.22703 21.7563 2.86688 23.0097C4.51806 24.2717 6.71807 25.361 9.31488 26.2552C14.5137 28.0454 21.5187 29.1273 29.4985 29.1273V26.3273ZM56.6208 17.8916C56.4367 18.7597 55.7782 19.7544 54.4298 20.785C53.0927 21.807 51.19 22.7746 48.7704 23.6078C43.9366 25.2723 37.2543 26.3273 29.4985 26.3273V29.1273C37.4783 29.1273 44.4832 28.0454 49.6821 26.2552C52.2789 25.361 54.4789 24.2717 56.1301 23.0097C57.7699 21.7563 58.9853 20.2398 59.3599 18.4721L56.6208 17.8916ZM56.6395 17.4891C56.6519 17.5356 56.6707 17.6559 56.6208 17.8916L59.3599 18.4721C59.479 17.9101 59.4953 17.3316 59.3449 16.7677L56.6395 17.4891ZM55.4647 9.50212L56.6069 17.3305L59.3775 16.9263L58.2353 9.09786L55.4647 9.50212Z" fill="#6B4127" mask="url(#path-3-inside-1_12_8446)"/>
<path d="M56.1 9.54545C56.1 10.5713 55.507 11.6481 54.2086 12.7215C52.9147 13.7911 51.0003 14.7856 48.573 15.6343C43.7248 17.3295 36.9815 18.3909 29.5 18.3909C22.0185 18.3909 15.2752 17.3295 10.427 15.6343C7.9997 14.7856 6.08528 13.7911 4.79138 12.7215C3.49297 11.6481 2.90001 10.5713 2.90001 9.54545C2.90001 8.51964 3.49297 7.4428 4.79138 6.36945C6.08528 5.29983 7.9997 4.30529 10.427 3.45657C15.2752 1.7614 22.0185 0.7 29.5 0.7C36.9815 0.7 43.7248 1.7614 48.573 3.45657C51.0003 4.30529 52.9147 5.29983 54.2086 6.36945C55.507 7.4428 56.1 8.51964 56.1 9.54545Z" fill="white" stroke="#6B4127" stroke-width="1.4"/>
<path d="M29.5 18.3909C24.0416 18.3909 18.9712 17.8015 14.7423 16.7934C10.8224 15.8589 7.67524 14.5766 5.60747 13.1092C5.75326 12.8935 5.9579 12.6147 6.23223 12.2904C6.92565 11.4708 8.06693 10.3573 9.83432 9.23601C13.3646 6.99628 19.4339 4.7 29.5 4.7C39.5661 4.7 45.6354 6.99628 49.1657 9.23601C50.9331 10.3573 52.0744 11.4708 52.7678 12.2904C53.0421 12.6147 53.2467 12.8935 53.3925 13.1092C51.3248 14.5766 48.1776 15.8589 44.2577 16.7934C40.0288 17.8015 34.9584 18.3909 29.5 18.3909ZM5.31136 13.5959C5.3112 13.5963 5.3113 13.5961 5.31167 13.5953L5.31136 13.5959Z" fill="#F5BCBE" stroke="#6B4127" stroke-width="1.4"/>
<path d="M38.9309 15.811C44.0931 12.7017 44.06 8.29699 43.3982 6.48328L48.8582 8.8152L52.8291 12.7017L47.8655 15.811C44.8791 17.214 37.588 18.1187 31.904 18.5913C29.7136 19.0496 27.9544 19.0535 27.0182 18.9202C28.3309 18.8559 30.0301 18.7471 31.904 18.5913C33.9719 18.1586 36.4241 17.3208 38.9309 15.811Z" fill="#D39698"/>
<path d="M29.5 18.3909C24.0009 18.3909 18.8926 17.8014 14.6318 16.7931C10.6832 15.8587 7.5124 14.5762 5.4286 13.1085C5.57534 12.8932 5.78095 12.6154 6.05622 12.2923C6.75479 11.4726 7.90469 10.3589 9.68555 9.23724C13.2429 6.99673 19.3584 4.7 29.5 4.7C39.6416 4.7 45.7571 6.99673 49.3144 9.23724C51.0953 10.3589 52.2452 11.4726 52.9438 12.2923C53.2191 12.6154 53.4247 12.8932 53.5714 13.1085C51.4876 14.5762 48.3168 15.8587 44.3682 16.7931C40.1074 17.8014 34.9991 18.3909 29.5 18.3909Z" stroke="#6B4127" stroke-width="1.4"/>
</g>
</svg>
