<svg width="20" height="20" viewBox="0 0 20 20" fill="none" xmlns="http://www.w3.org/2000/svg">
<g filter="url(#filter0_i_12_8199)">
<circle cx="10" cy="10" r="10" fill="#F4D34D"/>
</g>
<circle cx="10" cy="10" r="9.5" stroke="#6B4127"/>
<mask id="path-3-inside-1_12_8199" fill="white">
<path fill-rule="evenodd" clip-rule="evenodd" d="M9.38999 3.02663C8.01453 3.14697 6.99705 4.35955 7.11739 5.735L7.2917 7.72739L5.29931 7.90171C3.92386 8.02204 2.90638 9.23462 3.02672 10.6101C3.14705 11.9855 4.35963 13.003 5.73509 12.8827L7.72748 12.7084L7.90179 14.7008C8.02213 16.0762 9.23471 17.0937 10.6102 16.9734C11.9856 16.853 13.0031 15.6404 12.8828 14.265L12.7085 12.2726L14.7008 12.0983C16.0763 11.9779 17.0938 10.7654 16.9734 9.3899C16.8531 8.01444 15.6405 6.99697 14.2651 7.1173L12.2727 7.29162L12.0984 5.29923C11.978 3.92377 10.7654 2.90629 9.38999 3.02663Z"/>
</mask>
<path fill-rule="evenodd" clip-rule="evenodd" d="M9.38999 3.02663C8.01453 3.14697 6.99705 4.35955 7.11739 5.735L7.2917 7.72739L5.29931 7.90171C3.92386 8.02204 2.90638 9.23462 3.02672 10.6101C3.14705 11.9855 4.35963 13.003 5.73509 12.8827L7.72748 12.7084L7.90179 14.7008C8.02213 16.0762 9.23471 17.0937 10.6102 16.9734C11.9856 16.853 13.0031 15.6404 12.8828 14.265L12.7085 12.2726L14.7008 12.0983C16.0763 11.9779 17.0938 10.7654 16.9734 9.3899C16.8531 8.01444 15.6405 6.99697 14.2651 7.1173L12.2727 7.29162L12.0984 5.29923C11.978 3.92377 10.7654 2.90629 9.38999 3.02663Z" fill="white"/>
<path d="M7.11739 5.735L8.11359 5.64785L7.11739 5.735ZM7.2917 7.72739L7.37886 8.72359L8.37505 8.63643L8.2879 7.64024L7.2917 7.72739ZM5.73509 12.8827L5.64794 11.8865L5.73509 12.8827ZM7.72748 12.7084L8.72368 12.6212L8.63652 11.625L7.64033 11.7122L7.72748 12.7084ZM7.90179 14.7008L8.89799 14.6136L7.90179 14.7008ZM12.8828 14.265L11.8866 14.3521L12.8828 14.265ZM12.7085 12.2726L12.6213 11.2764L11.6251 11.3636L11.7123 12.3597L12.7085 12.2726ZM14.2651 7.1173L14.1779 6.12111L14.2651 7.1173ZM12.2727 7.29162L11.2765 7.37877L11.3636 8.37497L12.3598 8.28781L12.2727 7.29162ZM12.0984 5.29923L13.0946 5.21207L12.0984 5.29923ZM8.11359 5.64785C8.04138 4.82257 8.65187 4.09503 9.47714 4.02282L9.30283 2.03043C7.37719 2.19891 5.95273 3.89652 6.1212 5.82216L8.11359 5.64785ZM8.2879 7.64024L8.11359 5.64785L6.1212 5.82216L6.29551 7.81455L8.2879 7.64024ZM5.38647 8.8979L7.37886 8.72359L7.20455 6.7312L5.21216 6.90551L5.38647 8.8979ZM4.02291 10.5229C3.95071 9.69765 4.56119 8.9701 5.38647 8.8979L5.21216 6.90551C3.28652 7.07398 1.86205 8.7716 2.03052 10.6972L4.02291 10.5229ZM5.64794 11.8865C4.82266 11.9587 4.09511 11.3482 4.02291 10.5229L2.03052 10.6972C2.19899 12.6229 3.89661 14.0473 5.82225 13.8789L5.64794 11.8865ZM7.64033 11.7122L5.64794 11.8865L5.82225 13.8789L7.81464 13.7046L7.64033 11.7122ZM8.89799 14.6136L8.72368 12.6212L6.73129 12.7955L6.9056 14.7879L8.89799 14.6136ZM10.523 15.9772C9.69774 16.0494 8.97019 15.4389 8.89799 14.6136L6.9056 14.7879C7.07407 16.7136 8.77168 18.138 10.6973 17.9695L10.523 15.9772ZM11.8866 14.3521C11.9588 15.1774 11.3483 15.905 10.523 15.9772L10.6973 17.9695C12.623 17.8011 14.0474 16.1035 13.879 14.1778L11.8866 14.3521ZM11.7123 12.3597L11.8866 14.3521L13.879 14.1778L13.7047 12.1854L11.7123 12.3597ZM14.6137 11.1021L12.6213 11.2764L12.7956 13.2688L14.788 13.0945L14.6137 11.1021ZM15.9772 9.47706C16.0494 10.3023 15.439 11.0299 14.6137 11.1021L14.788 13.0945C16.7136 12.926 18.1381 11.2284 17.9696 9.30275L15.9772 9.47706ZM14.3522 8.1135C15.1775 8.0413 15.905 8.65178 15.9772 9.47706L17.9696 9.30275C17.8012 7.3771 16.1036 5.95264 14.1779 6.12111L14.3522 8.1135ZM12.3598 8.28781L14.3522 8.1135L14.1779 6.12111L12.1855 6.29542L12.3598 8.28781ZM11.1022 5.38638L11.2765 7.37877L13.2689 7.20446L13.0946 5.21207L11.1022 5.38638ZM9.47714 4.02282C10.3024 3.95062 11.03 4.56111 11.1022 5.38638L13.0946 5.21207C12.9261 3.28643 11.2285 1.86196 9.30283 2.03043L9.47714 4.02282Z" fill="#6B4127" mask="url(#path-3-inside-1_12_8199)"/>
<defs>
<filter id="filter0_i_12_8199" x="0" y="-1" width="20" height="21" filterUnits="userSpaceOnUse" color-interpolation-filters="sRGB">
<feFlood flood-opacity="0" result="BackgroundImageFix"/>
<feBlend mode="normal" in="SourceGraphic" in2="BackgroundImageFix" result="shape"/>
<feColorMatrix in="SourceAlpha" type="matrix" values="0 0 0 0 0 0 0 0 0 0 0 0 0 0 0 0 0 0 127 0" result="hardAlpha"/>
<feMorphology radius="1" operator="erode" in="SourceAlpha" result="effect1_innerShadow_12_8199"/>
<feOffset dy="-2"/>
<feComposite in2="hardAlpha" operator="arithmetic" k2="-1" k3="1"/>
<feColorMatrix type="matrix" values="0 0 0 0 0.882353 0 0 0 0 0.678431 0 0 0 0 0.231373 0 0 0 1 0"/>
<feBlend mode="normal" in2="shape" result="effect1_innerShadow_12_8199"/>
</filter>
</defs>
</svg>
