<svg width="30" height="30" viewBox="0 0 30 30" fill="none" xmlns="http://www.w3.org/2000/svg">
<mask id="mask0_12_9252" style="mask-type:alpha" maskUnits="userSpaceOnUse" x="0" y="0" width="30" height="30">
<rect width="30" height="30" fill="#D9D9D9"/>
</mask>
<g mask="url(#mask0_12_9252)">
<g filter="url(#filter0_d_12_9252)">
<path d="M13.5278 2.60121C14.3201 1.73946 15.6799 1.73946 16.4723 2.60121L19.8082 6.22936C20.0953 6.54158 20.4742 6.75445 20.8902 6.83722L25.7456 7.80334C26.9335 8.03969 27.6403 9.2692 27.2469 10.4146L25.7232 14.8503C25.5786 15.2713 25.5786 15.7287 25.7232 16.1497L27.2469 20.5854C27.6403 21.7308 26.9335 22.9603 25.7456 23.1967L20.8902 24.1628C20.4742 24.2455 20.0953 24.4584 19.8082 24.7706L16.4723 28.3988C15.6799 29.2605 14.3201 29.2605 13.5278 28.3988L10.1918 24.7706C9.90474 24.4584 9.52584 24.2455 9.10986 24.1628L4.25441 23.1967C3.06658 22.9603 2.35974 21.7308 2.75319 20.5854L4.27684 16.1497C4.42148 15.7287 4.42148 15.2713 4.27684 14.8503L2.75319 10.4146C2.35974 9.2692 3.06658 8.03969 4.25441 7.80334L9.10986 6.83722C9.52584 6.75445 9.90474 6.54158 10.1918 6.22936L13.5278 2.60121Z" fill="white"/>
<path d="M15.3681 3.61647L18.704 7.24463C19.2064 7.79101 19.8695 8.16353 20.5975 8.30838L25.4529 9.2745C25.7499 9.33359 25.9266 9.64097 25.8282 9.92732L24.3046 14.363C24.0514 15.0999 24.0514 15.9001 24.3046 16.637L25.8282 21.0727C25.9266 21.359 25.7499 21.6664 25.4529 21.7255L20.5975 22.6916C19.8695 22.8365 19.2064 23.209 18.704 23.7554L15.3681 27.3835C15.17 27.599 14.83 27.599 14.632 27.3835L11.296 23.7554C10.7936 23.209 10.1306 22.8365 9.40259 22.6916L4.54714 21.7255C4.25018 21.6664 4.07347 21.359 4.17183 21.0727L5.69548 16.637C5.9486 15.9001 5.9486 15.0999 5.69548 14.363L4.17183 9.92732C4.07347 9.64097 4.25018 9.33359 4.54714 9.2745L9.40259 8.30838C10.1306 8.16353 10.7936 7.79101 11.296 7.24463L14.632 3.61647C14.83 3.40103 15.17 3.40104 15.3681 3.61647Z" stroke="#6B4127" stroke-width="3"/>
</g>
<path d="M15.5153 3.4811L18.8513 7.10926C19.3249 7.62442 19.9501 7.97565 20.6365 8.11223L25.4919 9.07835C25.9077 9.16107 26.1551 9.5914 26.0174 9.9923L24.4937 14.4279C24.2551 15.1227 24.2551 15.8773 24.4937 16.5721L26.0174 21.0077C26.1551 21.4086 25.9077 21.8389 25.4919 21.9217L20.6365 22.8878C19.9501 23.0243 19.3249 23.3756 18.8513 23.8907L15.5153 27.5189C15.238 27.8205 14.7621 27.8205 14.4847 27.5189L11.1488 23.8907C10.6751 23.3756 10.0499 23.0243 9.36356 22.8878L4.50811 21.9217C4.09237 21.8389 3.84497 21.4086 3.98268 21.0077L5.50633 16.5721C5.74499 15.8773 5.74499 15.1227 5.50633 14.4279L3.98268 9.9923C3.84497 9.5914 4.09237 9.16107 4.50811 9.07835L9.36356 8.11223C10.0499 7.97565 10.6751 7.62442 11.1488 7.10926L14.4847 3.4811C14.7621 3.17949 15.238 3.17949 15.5153 3.4811Z" stroke="#F0DDA2" stroke-width="2.6"/>
<path d="M15.957 3.075L19.2929 6.70315C19.6805 7.12464 20.192 7.41202 20.7536 7.52376L25.609 8.48988C26.3811 8.64351 26.8406 9.44269 26.5848 10.1872L25.0612 14.6229C24.8659 15.1913 24.8659 15.8087 25.0612 16.3771L26.5848 20.8128C26.8406 21.5573 26.3811 22.3565 25.609 22.5101L20.7536 23.4762C20.192 23.588 19.6805 23.8754 19.2929 24.2968L15.957 27.925C15.442 28.4851 14.5581 28.4851 14.0431 27.925L10.7071 24.2968C10.3196 23.8754 9.80804 23.588 9.24646 23.4762L4.39102 22.5101C3.61893 22.3565 3.15948 21.5573 3.41523 20.8128L4.93887 16.3771C5.13414 15.8087 5.13414 15.1913 4.93887 14.6229L3.41523 10.1872C3.15948 9.44269 3.61893 8.64351 4.39102 8.48988L9.24646 7.52376C9.80804 7.41202 10.3196 7.12465 10.7071 6.70315L14.0431 3.075C14.5581 2.51486 15.442 2.51486 15.957 3.075Z" stroke="#6B4127" stroke-width="1.4"/>
</g>
<defs>
<filter id="filter0_d_12_9252" x="2.64384" y="1.9549" width="25.9124" height="28.0902" filterUnits="userSpaceOnUse" color-interpolation-filters="sRGB">
<feFlood flood-opacity="0" result="BackgroundImageFix"/>
<feColorMatrix in="SourceAlpha" type="matrix" values="0 0 0 0 0 0 0 0 0 0 0 0 0 0 0 0 0 0 127 0" result="hardAlpha"/>
<feOffset dx="1.2" dy="1"/>
<feComposite in2="hardAlpha" operator="out"/>
<feColorMatrix type="matrix" values="0 0 0 0 0.419608 0 0 0 0 0.254902 0 0 0 0 0.152941 0 0 0 0.3 0"/>
<feBlend mode="normal" in2="BackgroundImageFix" result="effect1_dropShadow_12_9252"/>
<feBlend mode="normal" in="SourceGraphic" in2="effect1_dropShadow_12_9252" result="shape"/>
</filter>
</defs>
</svg>
