<svg width="30" height="30" viewBox="0 0 30 30" fill="none" xmlns="http://www.w3.org/2000/svg">
<g filter="url(#filter0_i_7_1053)">
<circle cx="15" cy="15" r="15" fill="#F4D34D"/>
</g>
<circle cx="15" cy="15" r="14.3" stroke="#6B4127" stroke-width="1.4"/>
<mask id="mask0_7_1053" style="mask-type:alpha" maskUnits="userSpaceOnUse" x="0" y="0" width="30" height="30">
<circle cx="15" cy="15" r="14.3" fill="#F4D34D" stroke="#6B4127" stroke-width="1.4"/>
</mask>
<g mask="url(#mask0_7_1053)">
<circle opacity="0.6" cx="13" cy="7.00001" r="3" fill="white"/>
<path d="M16.2226 21.4391L16.0584 21.6348L16.2253 21.828L16.4524 21.632L16.2254 21.8281L16.2254 21.8282L16.2256 21.8284L16.2263 21.8292L16.229 21.8323L16.2392 21.844L16.2778 21.8882C16.3114 21.9264 16.3601 21.9816 16.4213 22.0499C16.5435 22.1864 16.7157 22.3756 16.9156 22.5868C17.3125 23.0062 17.829 23.5231 18.2836 23.8824C18.7893 24.2822 19.4207 24.5284 20.0026 24.6823C20.5875 24.8371 21.1429 24.9037 21.512 24.9327C21.9673 24.9684 22.2207 24.4793 22.0007 24.1211L21.3936 23.1329C21.6943 23.2065 22.0609 23.292 22.4351 23.3695C22.8848 23.4627 23.3541 23.546 23.7355 23.5814C23.9249 23.599 24.1049 23.606 24.2548 23.5928C24.3297 23.5863 24.4075 23.5739 24.4798 23.55C24.5487 23.5273 24.6397 23.4854 24.7099 23.4017C24.7801 23.3181 24.8056 23.2212 24.816 23.1494C24.8269 23.0741 24.8256 22.9952 24.8191 22.9203C24.806 22.7704 24.7678 22.5944 24.7176 22.411C24.6165 22.0415 24.453 21.5938 24.2832 21.1671C24.1419 20.8121 23.994 20.4659 23.8693 20.1825L24.9479 20.6088C25.3389 20.7633 25.7765 20.4287 25.6623 19.9866C25.5697 19.628 25.4076 19.0927 25.1536 18.5435C24.901 17.9972 24.5489 17.4181 24.0674 16.9896C23.6346 16.6043 23.0358 16.1854 22.5539 15.8673C22.3112 15.7071 22.095 15.5705 21.9393 15.4738C21.8614 15.4254 21.7986 15.387 21.7551 15.3605L21.7049 15.3302L21.6916 15.3222L21.6881 15.3201L21.6872 15.3196L21.6869 15.3194L21.6868 15.3193L21.5331 15.577L21.6868 15.3193L21.4675 15.1885L21.3033 15.3841L16.2226 21.4391Z" fill="#F4D34D" stroke="#725528" stroke-width="0.6"/>
<ellipse cx="18.9928" cy="18.6045" rx="2.22307" ry="2.71708" transform="rotate(-50 18.9928 18.6045)" fill="#FDF06A"/>
<g style="mix-blend-mode:multiply" opacity="0.5">
<path d="M20.7501 22.6586C20.7501 22.6586 24.1624 23.5876 24.4801 23.2089L18.9928 18.6045L16.4524 21.632C16.4524 21.632 17.5961 22.9565 18.4696 23.6471C19.3906 24.3752 20.8191 24.5774 21.5355 24.6336C21.7282 24.6487 21.8463 24.4429 21.7451 24.2782L20.7501 22.6586Z" fill="#FF9813"/>
</g>
<path d="M11.6262 22.5802C11.0446 21.4968 10.3234 19.7136 10.3234 19.7136L15.2649 22.0865L15.4324 25.7571C15.4468 26.0705 15.2659 26.3601 14.9781 26.4849C14.6627 26.6216 14.2959 26.5291 14.0887 26.2548C13.4962 25.4701 12.3023 23.8398 11.6262 22.5802Z" fill="#A73B26" stroke="#6B4127" stroke-width="0.6"/>
<g filter="url(#filter1_i_7_1053)">
<path d="M21.5495 10.754C20.3816 10.3695 18.5003 9.96885 18.5003 9.96885L21.6952 14.4232L25.3391 13.9508C25.6502 13.9105 25.9041 13.6821 25.977 13.377C26.0568 13.0427 25.902 12.6974 25.5959 12.5411C24.7202 12.0939 22.9074 11.2012 21.5495 10.754Z" fill="#BE4E34"/>
</g>
<path d="M21.5495 10.754C20.3816 10.3695 18.5003 9.96885 18.5003 9.96885L21.6952 14.4232L25.3391 13.9508C25.6502 13.9105 25.9041 13.6821 25.977 13.377C26.0568 13.0427 25.902 12.6974 25.5959 12.5411C24.7202 12.0939 22.9074 11.2012 21.5495 10.754Z" stroke="#6B4127" stroke-width="0.6"/>
<path d="M5.51452 15.0585C4.70813 13.4962 4.29409 11.7692 4.22844 10.2616C4.16217 8.73984 4.4524 7.49669 4.99062 6.85526C5.52885 6.21383 6.70272 5.71214 8.21291 5.51314C9.70901 5.316 11.4817 5.42386 13.1602 5.94671C15.507 6.67769 17.7479 8.93942 19.4199 11.064C20.2508 12.1199 20.9319 13.1296 21.4053 13.8755C21.6418 14.2483 21.8263 14.5548 21.9514 14.7677C21.9939 14.8401 22.0296 14.9017 22.0581 14.9514L15.9275 22.2576C15.8736 22.2381 15.8068 22.2137 15.7281 22.1843C15.4967 22.0981 15.1628 21.9697 14.7546 21.8015C13.9379 21.4648 12.8252 20.9694 11.6411 20.3345C9.2584 19.0568 6.6419 17.2427 5.51452 15.0585Z" fill="#E3E3E3" stroke="#6B4127" stroke-width="0.494015"/>
<mask id="mask1_7_1053" style="mask-type:alpha" maskUnits="userSpaceOnUse" x="3" y="5" width="20" height="18">
<path d="M5.51452 15.0585C4.70813 13.4962 4.29409 11.7692 4.22844 10.2616C4.16217 8.73984 4.4524 7.49669 4.99062 6.85526C5.52885 6.21383 6.70272 5.71214 8.21291 5.51314C9.70901 5.316 11.4817 5.42386 13.1602 5.94671C15.507 6.67769 17.7479 8.93942 19.4199 11.064C20.2508 12.1199 20.9319 13.1296 21.4053 13.8755C21.6418 14.2483 21.8263 14.5548 21.9514 14.7677C21.9939 14.8401 22.0296 14.9017 22.0581 14.9514L15.9275 22.2576C15.8736 22.2381 15.8068 22.2137 15.7281 22.1843C15.4967 22.0981 15.1628 21.9697 14.7546 21.8015C13.9379 21.4648 12.8252 20.9694 11.6411 20.3345C9.2584 19.0568 6.6419 17.2427 5.51452 15.0585Z" fill="#CECECE" stroke="#6B4127" stroke-width="0.494015"/>
</mask>
<g mask="url(#mask1_7_1053)">
<ellipse cx="10.5639" cy="9.4359" rx="8.76877" ry="9.8803" transform="rotate(-50 10.5639 9.4359)" fill="#F9F9F9"/>
<ellipse cx="4.42298" cy="6.37894" rx="6.6692" ry="4.44613" transform="rotate(-50 4.42298 6.37894)" fill="#BE4E34"/>
<path d="M0.136108 11.4878C2.01716 13.0662 5.46135 12.0584 7.82892 9.23686L4.42299 6.37894L0.136108 11.4878Z" fill="#A73B26"/>
</g>
<g filter="url(#filter2_di_7_1053)">
<circle cx="11.4088" cy="12.0796" r="3.3346" transform="rotate(-50 11.4088 12.0796)" fill="#BFE1ED"/>
<circle cx="11.4088" cy="12.0796" r="2.84059" transform="rotate(-50 11.4088 12.0796)" stroke="#393A3C" stroke-width="0.98803"/>
</g>
<path d="M12.1874 10.9595C11.8056 10.6391 11.2489 10.6344 10.7714 10.8998" stroke="white" stroke-width="0.741022" stroke-linecap="round"/>
<path d="M5.56161 15.0342C4.75891 13.4791 4.34671 11.7596 4.28138 10.2593C4.2153 8.74179 4.50592 7.51535 5.03122 6.88932C5.55652 6.26329 6.71386 5.76412 8.21983 5.56568C9.70868 5.36949 11.4736 5.47685 13.1445 5.99731C15.4745 6.72308 17.7069 8.97296 19.3783 11.0968C20.2078 12.1509 20.8878 13.1591 21.3605 13.9039C21.5967 14.2761 21.7809 14.5821 21.9057 14.7946C21.9394 14.852 21.9688 14.9025 21.9937 14.9457L15.9107 22.1951C15.8639 22.1781 15.809 22.1579 15.7466 22.1347C15.5157 22.0487 15.1824 21.9205 14.7748 21.7525C13.9592 21.4163 12.8483 20.9217 11.6661 20.2878C9.2843 19.0106 6.68097 17.2028 5.56161 15.0342Z" stroke="#6B4127" stroke-width="0.6"/>
<circle opacity="0.4" cx="7.44176" cy="6.81614" r="0.617519" transform="rotate(-50 7.44176 6.81614)" fill="white"/>
<path d="M20.5471 19.9087C20.6928 19.7351 20.7274 19.4957 20.7115 19.2705C20.6949 19.0358 20.6207 18.7659 20.4901 18.4777C20.2281 17.8996 19.7244 17.2146 18.913 16.5337C18.1016 15.8528 17.1195 15.3073 16.3055 14.9705C15.899 14.8024 15.5239 14.6818 15.2249 14.6243C15.0768 14.5958 14.934 14.5801 14.8095 14.5874C14.7019 14.5937 14.5275 14.621 14.4109 14.7599C14.2944 14.8988 14.2978 15.0753 14.3103 15.1823C14.3248 15.3062 14.365 15.4441 14.4188 15.585C14.5273 15.8695 14.7112 16.218 14.9474 16.5891C15.4204 17.3323 16.1281 18.2046 16.9396 18.8855C17.751 19.5664 18.5131 19.9435 19.1279 20.1011C19.4344 20.1796 19.713 20.2059 19.9471 20.1815C20.1717 20.1581 20.4014 20.0824 20.5471 19.9087Z" fill="#BE4E34" stroke="#6B4127" stroke-width="0.6"/>
<path d="M17.1324 18.6557C18.6999 19.971 20.0232 20.0664 20.3173 19.7159L14.6407 14.9527C14.3787 15.265 15.5648 17.3404 17.1324 18.6557Z" fill="#A73B26"/>
</g>
<defs>
<filter id="filter0_i_7_1053" x="0" y="-0.999992" width="30" height="31" filterUnits="userSpaceOnUse" color-interpolation-filters="sRGB">
<feFlood flood-opacity="0" result="BackgroundImageFix"/>
<feBlend mode="normal" in="SourceGraphic" in2="BackgroundImageFix" result="shape"/>
<feColorMatrix in="SourceAlpha" type="matrix" values="0 0 0 0 0 0 0 0 0 0 0 0 0 0 0 0 0 0 127 0" result="hardAlpha"/>
<feMorphology radius="1" operator="erode" in="SourceAlpha" result="effect1_innerShadow_7_1053"/>
<feOffset dy="-2"/>
<feComposite in2="hardAlpha" operator="arithmetic" k2="-1" k3="1"/>
<feColorMatrix type="matrix" values="0 0 0 0 0.882353 0 0 0 0 0.678431 0 0 0 0 0.231373 0 0 0 1 0"/>
<feBlend mode="normal" in2="shape" result="effect1_innerShadow_7_1053"/>
</filter>
<filter id="filter1_i_7_1053" x="17.8049" y="9.51404" width="8.49286" height="5.2297" filterUnits="userSpaceOnUse" color-interpolation-filters="sRGB">
<feFlood flood-opacity="0" result="BackgroundImageFix"/>
<feBlend mode="normal" in="SourceGraphic" in2="BackgroundImageFix" result="shape"/>
<feColorMatrix in="SourceAlpha" type="matrix" values="0 0 0 0 0 0 0 0 0 0 0 0 0 0 0 0 0 0 127 0" result="hardAlpha"/>
<feOffset dy="-1.72905"/>
<feComposite in2="hardAlpha" operator="arithmetic" k2="-1" k3="1"/>
<feColorMatrix type="matrix" values="0 0 0 0 0.654902 0 0 0 0 0.231373 0 0 0 0 0.14902 0 0 0 1 0"/>
<feBlend mode="normal" in2="shape" result="effect1_innerShadow_7_1053"/>
</filter>
<filter id="filter2_di_7_1053" x="7.33314" y="8.74488" width="7.41039" height="7.16337" filterUnits="userSpaceOnUse" color-interpolation-filters="sRGB">
<feFlood flood-opacity="0" result="BackgroundImageFix"/>
<feColorMatrix in="SourceAlpha" type="matrix" values="0 0 0 0 0 0 0 0 0 0 0 0 0 0 0 0 0 0 127 0" result="hardAlpha"/>
<feOffset dx="-0.741022" dy="0.247007"/>
<feComposite in2="hardAlpha" operator="out"/>
<feColorMatrix type="matrix" values="0 0 0 0 0.784314 0 0 0 0 0.780392 0 0 0 0 0.780392 0 0 0 1 0"/>
<feBlend mode="normal" in2="BackgroundImageFix" result="effect1_dropShadow_7_1053"/>
<feBlend mode="normal" in="SourceGraphic" in2="effect1_dropShadow_7_1053" result="shape"/>
<feColorMatrix in="SourceAlpha" type="matrix" values="0 0 0 0 0 0 0 0 0 0 0 0 0 0 0 0 0 0 127 0" result="hardAlpha"/>
<feMorphology radius="0.98803" operator="erode" in="SourceAlpha" result="effect2_innerShadow_7_1053"/>
<feOffset dx="-0.494015" dy="0.494015"/>
<feComposite in2="hardAlpha" operator="arithmetic" k2="-1" k3="1"/>
<feColorMatrix type="matrix" values="0 0 0 0 0.607843 0 0 0 0 0.721569 0 0 0 0 0.760784 0 0 0 1 0"/>
<feBlend mode="normal" in2="shape" result="effect2_innerShadow_7_1053"/>
</filter>
</defs>
</svg>
